<?xml version="1.0" encoding="UTF-8" standalone="no"?>
<svg width="51px" height="75px" viewBox="0 0 51 75" version="1.1" xmlns="http://www.w3.org/2000/svg" xmlns:xlink="http://www.w3.org/1999/xlink" xmlns:sketch="http://www.bohemiancoding.com/sketch/ns">
    <!-- Generator: Sketch 3.2.2 (9983) - http://www.bohemiancoding.com/sketch -->
    <title>Shape</title>
    <desc>Created with Sketch.</desc>
    <defs></defs>
    <g id="Page-1" stroke="none" stroke-width="1" fill="none" fill-rule="evenodd" sketch:type="MSPage">
        <g id="tallGlassWithStraw-2" sketch:type="MSLayerGroup" fill="#F5EEEE">
            <g id="Welcome" sketch:type="MSShapeGroup">
                <g id="Desktop-HD-2">
                    <g id="tallGlassWithStraw-2">
                        <path d="M47.1559893,11.2044264 L23.8138628,11.2044264 L23.4877838,8.61451437 C23.2716191,6.19504001 21.4104042,1.48577216 15.9403375,0.98186938 C10.6461336,0.496492442 0.662254414,0.0222310048 0.237252584,0 L0.0577259475,3.90524651 C0.160312597,3.90895168 10.3823394,4.39803378 15.5922757,4.87600039 C19.1388427,5.20205513 19.6004826,8.59598854 19.6481121,9.03690346 L19.9192339,11.2044264 L12.0530363,11.2044264 L9.15496343,11.2044264 L9.15496343,14.135214 L9.15496343,72.0692125 L9.15496343,75 L12.0530363,75 L47.1596531,75 L50.0577259,75 L50.0577259,72.0692125 L50.0577259,14.135214 L50.0577259,11.2044264 L47.1559893,11.2044264 L47.1559893,11.2044264 Z M12.0530363,72.0692125 L12.0530363,14.135214 L20.2856149,14.135214 L22.2823907,30.0933702 L13.9875274,30.0933702 L13.9875274,70.1128841 L45.225162,70.1128841 L45.225162,30.0970754 L26.1806834,30.0970754 L24.1802437,14.135214 L47.1559893,14.135214 L47.1559893,72.0692125 L12.0530363,72.0692125 L12.0530363,72.0692125 Z M28.0785364,48.496937 C29.0897476,48.8637486 29.6173361,49.9901195 29.2582828,51.0127458 L27.0490061,57.2744787 C26.686289,58.297105 25.572491,58.8343543 24.5612798,58.4675427 L18.3694428,56.2333267 C17.3545677,55.8665152 16.8269792,54.7438493 17.1896963,53.717518 L19.3953093,47.455785 C19.7580264,46.4331587 20.8718243,45.8996146 21.8830355,46.262721 L28.0785364,48.496937 L28.0785364,48.496937 Z M41.9607082,39.1006323 L39.7514315,45.3623654 C39.3887145,46.3849916 38.2749165,46.9222408 37.2637052,46.5517241 L31.0718683,44.3212133 C30.060657,43.9544017 29.5294047,42.831736 29.8957856,41.8054046 L32.1013985,35.5436715 C32.4677795,34.5173401 33.5742497,33.9837961 34.5891248,34.3506076 L40.7809617,36.5811184 C41.7885092,36.9516352 42.3197615,38.0780061 41.9607082,39.1006323 L41.9607082,39.1006323 L41.9607082,39.1006323 Z M42.8986434,62.5061752 C43.2723519,63.5213912 42.7557548,64.6588775 41.7482074,65.0368046 L35.5783532,67.3414188 C34.5744695,67.7230511 33.453344,67.1969173 33.0796355,66.1817014 L30.7970826,59.9421994 C30.4233741,58.9232783 30.9399711,57.7932022 31.9475186,57.41157 L38.1173728,55.1069558 C39.1212564,54.7290287 40.2423819,55.2514573 40.6160904,56.2703784 L42.8986434,62.5061752 L42.8986434,62.5061752 Z" id="Shape"></path>
                    </g>
                </g>
            </g>
        </g>
    </g>
</svg>