<?xml version="1.0" encoding="UTF-8" standalone="no"?>
<svg width="36px" height="91px" viewBox="0 0 36 91" version="1.1" xmlns="http://www.w3.org/2000/svg" xmlns:xlink="http://www.w3.org/1999/xlink" xmlns:sketch="http://www.bohemiancoding.com/sketch/ns">
    <!-- Generator: Sketch 3.2.2 (9983) - http://www.bohemiancoding.com/sketch -->
    <title>Shape</title>
    <desc>Created with Sketch.</desc>
    <defs></defs>
    <g id="Page-1" stroke="none" stroke-width="1" fill="none" fill-rule="evenodd" sketch:type="MSPage">
        <g id="noun_30554_cc" sketch:type="MSLayerGroup" transform="translate(-12.000000, 0.000000)" fill="#34153F">
            <g id="Layer_1" sketch:type="MSShapeGroup">
                <path d="M40.01,20.123 L38.066,0.576 L21.447,0.576 L19.506,20.104 C12.136,21.234 12.134,30.797 12.134,34.071 L17.051,90.575 L42.464,90.575 L47.318,34.217 L47.324,34.071 C47.324,25.575 44.859,20.902 40.01,20.123 L40.01,20.123 Z M34.979,3.987 L36.571,19.993 L22.944,19.993 L24.535,3.987 L34.979,3.987 L34.979,3.987 Z M20.999,23.403 L38.498,23.403 C41.94,23.403 43.625,26.19 43.877,32.366 L15.581,32.366 C15.824,26.112 17.482,23.403 20.999,23.403 L20.999,23.403 Z M39.334,87.166 L20.178,87.166 L15.7,35.777 L43.761,35.777 L39.334,87.166 L39.334,87.166 Z" id="Shape"></path>
            </g>
        </g>
    </g>
</svg>