<?xml version="1.0" encoding="UTF-8" standalone="no"?>
<svg width="44px" height="66px" viewBox="0 0 44 66" version="1.1" xmlns="http://www.w3.org/2000/svg" xmlns:xlink="http://www.w3.org/1999/xlink" xmlns:sketch="http://www.bohemiancoding.com/sketch/ns">
    <!-- Generator: Sketch 3.2.2 (9983) - http://www.bohemiancoding.com/sketch -->
    <title>tallGlassWithStraw 2</title>
    <desc>Created with Sketch.</desc>
    <defs></defs>
    <g id="Welcome" stroke="none" stroke-width="1" fill="none" fill-rule="evenodd" sketch:type="MSPage">
        <g id="Desktop-HD-2" sketch:type="MSArtboardGroup" transform="translate(-35.000000, -30.000000)" fill="#FFFFFF">
            <g id="tallGlassWithStraw-2" sketch:type="MSLayerGroup" transform="translate(35.000000, 30.000000)">
                <path d="M41.2836735,9.76438356 L20.851895,9.76438356 L20.5664723,7.50733855 C20.3772595,5.39882583 18.748105,1.29481409 13.9600583,0.855675147 C9.32594752,0.432681018 0.586880466,0.0193737769 0.214868805,0 L0.0577259475,3.40332681 C0.147521866,3.40655577 9.09504373,3.83277886 13.6553936,4.24931507 C16.7597668,4.5334638 17.1638484,7.49119374 17.2055394,7.87544031 L17.4428571,9.76438356 L10.5574344,9.76438356 L8.02069971,9.76438356 L8.02069971,12.3184932 L8.02069971,62.8065558 L8.02069971,65.3606654 L10.5574344,65.3606654 L41.2868805,65.3606654 L43.8236152,65.3606654 L43.8236152,62.8065558 L43.8236152,12.3184932 L43.8236152,9.76438356 L41.2836735,9.76438356 L41.2836735,9.76438356 Z M10.5574344,62.8065558 L10.5574344,12.3184932 L17.7635569,12.3184932 L19.5113703,26.225636 L12.2507289,26.225636 L12.2507289,61.1016634 L39.593586,61.1016634 L39.593586,26.228865 L22.9236152,26.228865 L21.1725948,12.3184932 L41.2836735,12.3184932 L41.2836735,62.8065558 L10.5574344,62.8065558 Z M24.5848397,42.2638943 C25.4699708,42.5835616 25.9317784,43.5651663 25.6174927,44.4563601 L23.6836735,49.9133072 C23.3661808,50.804501 22.3912536,51.2727006 21.5061224,50.9530333 L16.0862974,49.0059687 C15.1979592,48.6863014 14.7361516,47.7079256 15.0536443,46.8135029 L16.9842566,41.3565558 C17.3017493,40.465362 18.2766764,40.0003914 19.1618076,40.3168297 L24.5848397,42.2638943 L24.5848397,42.2638943 Z M36.7361516,34.0752446 L34.8023324,39.5321918 C34.4848397,40.4233855 33.5099125,40.8915851 32.6247813,40.5686888 L27.2049563,38.6248532 C26.3198251,38.3051859 25.8548105,37.3268102 26.1755102,36.4323875 L28.1061224,30.9754403 C28.4268222,30.0810176 29.3953353,29.616047 30.2836735,29.9357143 L35.7034985,31.8795499 C36.5854227,32.2024462 37.0504373,33.1840509 36.7361516,34.0752446 L36.7361516,34.0752446 Z M37.5571429,54.4726027 C37.8842566,55.3573386 37.43207,56.3486301 36.5501458,56.6779843 L31.1495627,58.6863992 C30.2708455,59.0189824 29.2895044,58.5604697 28.9623907,57.6757339 L26.9644315,52.2381605 C26.6373178,51.3501957 27.0895044,50.365362 27.9714286,50.0327789 L33.3720117,48.024364 C34.2507289,47.6950098 35.23207,48.1502935 35.5591837,49.0382583 L37.5571429,54.4726027 L37.5571429,54.4726027 Z" id="Shape" sketch:type="MSShapeGroup"></path>
            </g>
        </g>
    </g>
</svg>